<?xml version="1.0" encoding="UTF-8"?>
<svg id="Layer_1" data-name="Layer 1" xmlns="http://www.w3.org/2000/svg" viewBox="0 0 319.12 129.38">
  <defs>
    <style>
      .cls-1 {
        fill: #fff;
      }

      .cls-2 {
        fill: #4fa58c;
      }
    </style>
  </defs>
  <circle class="cls-2" cx="64.69" cy="64.69" r="64.69"/>
  <g>
    <path class="cls-1" d="M94.08,76.39c.6,1.48,1.56,2.67,2.88,3.58,1.32.9,2.81,1.35,4.48,1.35,1.06,0,2.06-.2,2.99-.59s1.74-.91,2.43-1.56h15.15c-.69,2.18-1.73,4.16-3.09,5.94-1.37,1.78-2.95,3.31-4.76,4.59s-3.82,2.26-6.04,2.95c-2.22.69-4.56,1.04-7.02,1.04-3.06,0-5.93-.53-8.61-1.6-2.69-1.06-5.01-2.56-6.98-4.48s-3.53-4.18-4.69-6.77-1.74-5.42-1.74-8.48.58-5.88,1.74-8.48c1.16-2.59,2.72-4.85,4.69-6.77s4.3-3.41,6.98-4.48c2.69-1.06,5.56-1.6,8.61-1.6s5.93.53,8.62,1.6,5.01,2.56,6.98,4.48,3.53,4.18,4.69,6.77c1.16,2.6,1.74,5.42,1.74,8.48,0,1.44-.14,2.78-.42,4.03h-28.63ZM101.1,63.4c-1.62,0-3.08.46-4.38,1.39s-2.2,2.11-2.71,3.54h14.17c-.56-1.44-1.47-2.62-2.74-3.54-1.27-.93-2.72-1.39-4.34-1.39h0Z"/>
    <path class="cls-1" d="M33.92,93.69c-.24-1.3-.36-2.64-.36-4.03,0-3.06.58-5.88,1.74-8.48,1.16-2.59,2.72-4.85,4.69-6.77,1.97-1.92,4.3-3.41,6.98-4.48,2.69-1.06,5.56-1.6,8.61-1.6s5.93.53,8.62,1.6c2.69,1.07,5.01,2.56,6.98,4.48,1.97,1.92,3.53,4.18,4.69,6.77,1.16,2.6,1.74,5.42,1.74,8.48,0,1.44-.14,2.78-.42,4.03h-28.62M55.58,80.7c-1.62,0-3.08.46-4.38,1.39s-2.2,2.11-2.71,3.54h14.17c-.56-1.44-1.47-2.62-2.74-3.54-1.27-.93-2.72-1.39-4.34-1.39h0ZM20.61,87.63c-1.86,0-3.53.57-5.01,1.71-1.49,1.14-2.52,2.59-3.1,4.35h16.22c-.64-1.76-1.68-3.21-3.14-4.35s-3.11-1.71-4.97-1.71Z"/>
  </g>
  <path class="cls-1" d="M137.3,52.29l7.29,24.66h.28l7.29-24.66h15.84l-16.05,40.23h-14.45l-16.05-40.23h15.85Z"/>
  <path class="cls-1" d="M210.39,72.36c0,3.06-.58,5.88-1.74,8.48-1.16,2.59-2.72,4.85-4.69,6.77s-4.3,3.42-6.98,4.48c-2.69,1.06-5.56,1.6-8.62,1.6s-5.93-.53-8.61-1.6c-2.69-1.06-5.01-2.56-6.98-4.48s-3.53-4.18-4.69-6.77-1.74-5.42-1.74-8.48.58-5.88,1.74-8.48c1.16-2.59,2.72-4.85,4.69-6.77s4.3-3.41,6.98-4.48c2.69-1.06,5.56-1.6,8.61-1.6s5.93.53,8.62,1.6,5.01,2.56,6.98,4.48,3.53,4.18,4.69,6.77c1.16,2.6,1.74,5.42,1.74,8.48ZM180.44,72.36c0,1.11.21,2.14.62,3.09.42.95.98,1.78,1.7,2.5s1.55,1.29,2.5,1.7c.95.42,1.98.63,3.09.63s2.14-.21,3.09-.63,1.78-.98,2.5-1.7,1.29-1.55,1.7-2.5c.42-.95.63-1.98.63-3.09s-.21-2.14-.63-3.09-.98-1.78-1.7-2.5-1.55-1.29-2.5-1.7c-.95-.42-1.98-.62-3.09-.62s-2.14.21-3.09.62c-.95.42-1.78.99-2.5,1.7-.72.72-1.29,1.55-1.7,2.5-.42.95-.62,1.98-.62,3.09Z"/>
  <path class="cls-1" d="M214.07,35.82h14.17v56.69h-14.17v-56.69h0Z"/>
  <path class="cls-1" d="M246.03,52.29l7.29,24.66h.28l7.29-24.66h15.84l-16.05,40.23h-14.45l-16.05-40.23s15.85,0,15.85,0Z"/>
  <path class="cls-1" d="M290.07,76.39c.6,1.48,1.56,2.67,2.88,3.58,1.32.9,2.81,1.35,4.48,1.35,1.06,0,2.06-.2,2.99-.59s1.74-.91,2.43-1.56h15.15c-.69,2.18-1.73,4.16-3.09,5.94-1.37,1.78-2.95,3.31-4.76,4.59s-3.82,2.26-6.04,2.95-4.56,1.04-7.02,1.04c-3.06,0-5.93-.53-8.61-1.6-2.69-1.06-5.01-2.56-6.98-4.48s-3.53-4.18-4.69-6.77-1.74-5.42-1.74-8.48.58-5.88,1.74-8.48c1.16-2.59,2.72-4.85,4.69-6.77s4.3-3.41,6.98-4.48c2.69-1.06,5.56-1.6,8.61-1.6s5.93.53,8.62,1.6,5.01,2.56,6.98,4.48,3.53,4.18,4.69,6.77c1.16,2.6,1.74,5.42,1.74,8.48,0,1.44-.14,2.78-.42,4.03h-28.63,0ZM297.09,63.4c-1.62,0-3.08.46-4.38,1.39-1.3.93-2.2,2.11-2.71,3.54h14.17c-.56-1.44-1.47-2.62-2.74-3.54-1.27-.93-2.72-1.39-4.34-1.39h0Z"/>
</svg>